<?xml version="1.0" standalone="no"?>
<!DOCTYPE svg PUBLIC "-//W3C//DTD SVG 1.1//EN" "http://www.w3.org/Graphics/SVG/1.1/DTD/svg11.dtd">

<svg width="1600" height="1600" version="1.1" xmlns="http://www.w3.org/2000/svg" onload="top.methanol_next()" >

<rect x="0%" y="0%" width="100%" height="100%" fill="black" />

<defs>
<filter id="filt" filterUnits="objectBoundingBox" x="0" y="0" width="100%" height="100%">
    <feTurbulence id="turb" baseFrequency="0.03" numOctaves="4" seed="10" result="turb" />
    </filter>
</defs>

<g filter="url(#filt)" fill="white" stroke="black" >
   <rect x="0" y="0" width="400" height="400" />
</g>

<g filter="url(#filt)" fill="white" stroke="black" >
   <rect x="400" y="0" width="400" height="400" />
</g>

<g filter="url(#filt)" fill="white" stroke="black" >
   <rect x="800" y="0" width="400" height="400" />
</g>

<g filter="url(#filt)" fill="white" stroke="black" >
   <rect x="1200" y="0" width="400" height="400" />
</g>



<g filter="url(#filt)" fill="white" stroke="black" >
   <rect x="0" y="400" width="400" height="400" />
</g>

<g filter="url(#filt)" fill="white" stroke="black" >
   <rect x="400" y="400" width="400" height="400" />
</g>

<g filter="url(#filt)" fill="white" stroke="black" >
   <rect x="800" y="400" width="400" height="400" />
</g>

<g filter="url(#filt)" fill="white" stroke="black" >
   <rect x="1200" y="400" width="400" height="400" />
</g>



<g filter="url(#filt)" fill="white" stroke="black" >
   <rect x="0" y="800" width="400" height="400" />
</g>

<g filter="url(#filt)" fill="white" stroke="black" >
   <rect x="400" y="800" width="400" height="400" />
</g>

<g filter="url(#filt)" fill="white" stroke="black" >
   <rect x="800" y="800" width="400" height="400" />
</g>

<g filter="url(#filt)" fill="white" stroke="black" >
   <rect x="1200" y="800" width="400" height="400" />
</g>



<g filter="url(#filt)" fill="white" stroke="black" >
   <rect x="0" y="1200" width="400" height="400" />
</g>

<g filter="url(#filt)" fill="white" stroke="black" >
   <rect x="400" y="1200" width="400" height="400" />
</g>

<g filter="url(#filt)" fill="white" stroke="black" >
   <rect x="800" y="1200" width="400" height="400" />
</g>

<g filter="url(#filt)" fill="white" stroke="black" >
   <rect x="1200" y="1200" width="400" height="400" />
</g>

</svg>
